<svg width="21" height="20" viewBox="0 0 21 20" fill="none" xmlns="http://www.w3.org/2000/svg">
<path d="M18.075 5.81664C17.3667 5.03331 16.1833 4.64164 14.4667 4.64164H14.2667V4.60831C14.2667 3.20831 14.2667 1.47498 11.1333 1.47498H9.86666C6.73332 1.47498 6.73332 3.21664 6.73332 4.60831V4.64998H6.53332C4.80832 4.64998 3.63332 5.04164 2.92499 5.82498C2.09999 6.74164 2.12499 7.97498 2.20832 8.81664L2.21666 8.87497L2.27745 9.51326C2.29171 9.66303 2.37246 9.79841 2.49846 9.88063C2.70051 10.0125 3.01025 10.2112 3.19999 10.3166C3.31666 10.3916 3.44166 10.4583 3.56666 10.525C4.99166 11.3083 6.55832 11.8333 8.14999 12.0916C8.22499 12.875 8.56666 13.7916 10.3917 13.7916C12.2167 13.7916 12.575 12.8833 12.6333 12.075C14.3333 11.8 15.975 11.2083 17.4583 10.3416C17.5083 10.3166 17.5417 10.2916 17.5833 10.2666C17.9035 10.0857 18.2354 9.86397 18.54 9.6453C18.6532 9.56403 18.7254 9.43789 18.7408 9.29938L18.75 9.21664L18.7917 8.82498C18.8 8.77498 18.8 8.73331 18.8083 8.67497C18.875 7.83331 18.8583 6.68331 18.075 5.81664ZM11.4083 11.525C11.4083 12.4083 11.4083 12.5416 10.3833 12.5416C9.35832 12.5416 9.35832 12.3833 9.35832 11.5333V10.4833H11.4083V11.525ZM7.92499 4.64164V4.60831C7.92499 3.19164 7.92499 2.66664 9.86666 2.66664H11.1333C13.075 2.66664 13.075 3.19998 13.075 4.60831V4.64998H7.92499V4.64164Z" fill="#1D7885"/>
<path d="M17.7597 11.5091C18.1137 11.3418 18.5209 11.6224 18.4855 12.0124L18.2 15.1584C18.025 16.8251 17.3416 18.5251 13.675 18.5251H7.32495C3.65828 18.5251 2.97495 16.8251 2.79995 15.1667L2.52924 12.1889C2.4942 11.8034 2.89252 11.5234 3.24555 11.682C4.20476 12.1131 5.81676 12.8065 6.85274 13.0855C7.01675 13.1297 7.1499 13.2477 7.2243 13.4004C7.73851 14.4557 8.82769 15.0167 10.3916 15.0167C11.9401 15.0167 13.0426 14.434 13.5588 13.3756C13.6333 13.2228 13.7664 13.1049 13.9304 13.0604C15.0322 12.7619 16.7536 11.9847 17.7597 11.5091Z" fill="#1D7885"/>
</svg>
